<svg width="212" height="21" viewBox="0 0 212 21" fill="none" xmlns="http://www.w3.org/2000/svg">
<g clip-path="url(#clip0_129_307)">
<path d="M7.6 0.1H9.9L25.2 17.3H25.5V0.1H27.7V20.1H24.9L10.1 3.3H9.6V20.2H7.6V0.1ZM79.8 0.1H82.1L97.3 17.3H97.6V0.1H99.8V20.1H97L82.3 3.3H81.8V20.2H79.8V0.1ZM37.9 0.1C45 0.1 49.1 3.5 49.1 10.1C49.1 16.7 45 20.1 37.9 20.1H32V0.1H37.9ZM38.4 18.5C44.5 18.5 47 15.2 47 10.1C47 4.2 43.2 1.6 37 1.7H34V18.4L38.4 18.5ZM53 20.1V0H55.3V20.1H53ZM57.8 20.1L66.8 0.1H69.4L78.3 20.1H76.3L72.6 11.9H63.6L60 20.1H57.8ZM71.9 10.3L68.2 1.8H68.1L64.3 10.3H71.9ZM101.7 20.1L110.7 0.1H113.3L122.2 20.1H120.2L116.5 11.9H107.5L103.9 20.1H101.7ZM115.7 10.3L112 1.8H111.9L108.1 10.3H115.7ZM0 20.1V0H2.3V20.1H0Z" fill="black"/>
<path d="M124.9 0.099996H144.8V3.4H137.5V20.1H132.2V3.4H124.9V0.099996ZM147.6 0.099996H166.8V3.4H153.8V8.6H165.1V11.9H153.8V16.8H166.8V20.1H147.6V0.099996ZM184.2 13.1C183.5 15.2 181.5 16.6 179.3 16.4C175.4 16.4 174 13.7 174 10.3C174 6.9 175.5 4.2 179.3 4.2C181.4 4 183.4 5.3 184.1 7.3L188.6 6.6C186.6 1.3 180.6 -1.3 175.4 0.699996C170.2 2.7 167.5 8.7 169.5 13.9C171.5 19.2 177.5 21.8 182.7 19.8C185.5 18.7 187.7 16.5 188.7 13.7L184.2 13.1ZM191.8 20.1V0.099996H197V8.6H206.1V0.099996H211.4V20.1H206.2V12H197V20.1H191.8Z" fill="black"/>
</g>
<defs>
<clipPath id="clip0_129_307">
<rect width="212" height="21" fill="white"/>
</clipPath>
</defs>
</svg>
