<svg width="90" height="65" viewBox="0 0 90 65" fill="none" xmlns="http://www.w3.org/2000/svg">
<path d="M89.8105 59.6538C89.67 59.6538 89.4591 59.5835 89.1779 59.443C88.8968 59.443 88.6859 59.443 88.5453 59.443C88.1235 59.443 87.8424 59.7241 87.7018 60.2864C87.5612 60.8488 87.3503 61.1299 87.0692 61.1299C86.788 61.1299 86.5771 61.0596 86.4366 60.9191L84.117 57.3342C83.1329 57.756 82.5706 58.3183 82.43 59.0212C82.2894 59.1618 82.2894 59.6538 82.43 60.4973L75.4712 57.3342C74.3465 58.5995 73.1516 60.0053 71.8863 61.5517C70.6211 62.9575 69.2856 63.7307 67.8797 63.8713C67.458 63.8713 67.2471 63.6604 67.2471 63.2387C67.1065 62.6763 67.2471 61.8328 67.6689 60.7082C68.0906 59.5835 68.3015 58.9509 68.3015 58.8103C67.1768 58.8103 66.3333 59.0915 65.771 59.6538C64.7869 60.7785 64.2246 61.3408 64.084 61.3408C61.6941 54.0305 58.6716 43.0651 55.0165 28.4446C54.5947 26.3359 53.3998 22.751 51.4316 17.6901C49.1823 12.0668 47.7765 8.0602 47.2142 5.67031C47.2142 5.67031 46.7924 3.98332 45.9489 0.609341C55.6491 0.32818 64.8572 0.609345 73.5733 1.45283C73.8545 3.42098 74.698 7.2167 76.1038 12.84C77.2284 17.7604 77.7908 21.6264 77.7908 24.438C77.7908 25.9844 77.6502 27.4605 77.369 28.8664V29.0772C77.369 29.2178 77.6502 29.499 78.2125 29.9207C78.7748 30.3425 79.1263 30.7642 79.2669 31.186C79.2669 31.3265 78.9857 31.678 78.4234 32.2403C78.0016 32.8026 77.7205 33.2947 77.5799 33.7164H80.1104L80.9539 37.0904C81.6568 39.902 83.0626 43.6275 85.1713 48.2667C87.5612 53.7494 89.1076 57.5451 89.8105 59.6538ZM36.4596 42.9948C36.319 43.1354 36.0379 43.2057 35.6161 43.2057C35.1944 43.2057 34.6321 42.9948 33.9292 42.5731C33.2262 42.0108 32.5936 41.7296 32.0313 41.7296C31.8907 41.7296 31.6096 41.7999 31.1878 41.9405L32.0313 44.2601C31.8907 44.4007 31.6096 44.5413 31.1878 44.6818C30.9066 44.6818 30.4849 44.6115 29.9226 44.471C29.5008 44.3304 29.1494 44.2601 28.8682 44.2601C28.7276 44.2601 28.5167 44.3304 28.2356 44.471L28.8682 46.7906C29.0088 46.7906 29.1494 46.7203 29.2899 46.5797C29.2899 46.5797 29.3602 46.5797 29.5008 46.5797L29.7117 46.7906C29.8523 47.3529 29.4305 47.9855 28.4465 48.6884C27.4624 49.2508 26.6189 49.5319 25.916 49.5319C25.0725 49.5319 24.5804 49.2508 24.4399 48.6884C24.0181 47.142 24.5804 46.1579 26.1268 45.7362C25.5645 46.0174 25.1428 46.1579 24.8616 46.1579C24.4399 46.1579 24.0181 45.5956 23.5964 44.471C23.5964 44.0492 23.3855 43.6275 22.9638 43.2057C22.9638 43.2057 25.2834 42.784 29.9226 41.9405C29.2197 41.2376 27.3921 40.3941 24.4399 39.41L23.3855 35.8252C23.1043 35.6846 22.6123 35.6143 21.9094 35.6143C21.4876 35.6143 20.855 35.6846 20.0115 35.8252C19.3086 35.9657 18.7463 36.036 18.3245 36.036C17.1999 36.036 16.2158 35.4034 15.3723 34.1382C14.5288 32.7324 13.615 32.0294 12.631 32.0294C12.0686 32.0294 11.436 32.3106 10.7331 32.8729C10.0302 33.2947 9.53816 33.5056 9.257 33.5056H9.04613C9.18671 33.2244 8.97583 32.2403 8.41351 30.5533C7.7106 28.304 7.35914 27.1794 7.35914 27.1794C10.0302 28.5852 11.0846 29.4287 10.5222 29.7098C12.4904 28.7258 13.4042 27.8823 13.2636 27.1794C12.9824 26.1953 12.2092 25.7032 10.944 25.7032C10.3817 25.7032 9.88962 25.9141 9.46787 26.3359C9.04612 26.7576 8.76496 27.0388 8.62438 27.1794C5.53157 19.1662 2.71993 10.5204 0.189453 1.24196C3.84459 1.10138 12.2092 1.38255 25.2834 2.08546C26.1268 4.33477 27.4624 7.63845 29.2899 11.9965C29.0088 12.1371 28.587 12.2074 28.0247 12.2074C27.603 12.2074 26.9703 12.1371 26.1268 11.9965C25.2834 11.8559 24.6507 11.7856 24.229 11.7856C24.0884 11.7856 23.8775 11.7856 23.5964 11.7856C23.3152 11.9262 23.1043 11.9965 22.9638 11.9965L23.8072 14.527C22.1203 15.6516 21.1362 16.706 20.855 17.6901C20.4333 19.2365 20.0115 20.7126 19.5898 22.1184C22.6826 19.4473 25.0725 18.1118 26.7595 18.1118C29.1494 18.1118 31.0472 20.6423 32.453 25.7032C33.2965 29.499 34.6321 35.2628 36.4596 42.9948ZM37.9357 47.2123C38.0763 47.7746 37.7952 48.0558 37.0923 48.0558C34.4212 48.0558 32.8045 47.142 32.2422 45.3144C31.961 43.768 32.453 42.9948 33.7183 42.9948H34.14C36.2488 44.6818 37.514 46.0877 37.9357 47.2123ZM40.2553 51.6406C40.2553 52.203 40.3959 53.5385 40.6771 55.6472C40.9583 57.6154 41.0988 59.0915 41.0988 60.0756C41.0988 63.0278 40.2553 64.5039 38.5684 64.5039C37.7249 64.5039 37.022 64.0822 36.4596 63.2387C36.0379 62.2546 35.6864 61.7626 35.4053 61.7626C37.514 61.0596 38.4278 60.2864 38.1466 59.443C36.319 59.0212 34.2806 58.5292 32.0313 57.9668L30.9769 54.382C31.8204 53.8197 32.7342 52.5544 33.7183 50.5863C35.1241 51.2892 37.3031 51.6406 40.2553 51.6406ZM30.1334 60.4973C29.9929 61.3408 29.8523 62.1843 29.7117 63.0278C29.7117 63.8713 29.2899 64.293 28.4465 64.293C25.7754 64.4336 23.1043 63.5198 20.4333 61.5517C17.9028 59.5835 16.2861 57.2639 15.5832 54.5929C15.302 53.3276 15.1614 52.3436 15.1614 51.6406C15.1614 50.516 15.5832 49.6022 16.4267 48.8993C17.2702 48.1964 17.6919 47.5638 17.6919 47.0014C16.989 46.4391 15.0912 45.6659 11.9983 44.6818L11.1549 40.8861C11.0143 40.8861 11.0143 40.9564 11.1549 41.097V40.8861L10.944 40.0426C10.5222 38.4962 9.95991 36.7389 9.257 34.7708C9.95991 34.6302 10.6628 34.9817 11.3657 35.8252C11.9281 36.5281 12.2795 36.9498 12.4201 37.0904C16.3564 39.7615 18.7463 42.784 19.5898 46.1579C19.8709 47.4232 20.363 50.1645 21.0659 54.382C22.3311 54.382 24.0884 54.8037 26.3377 55.6472C23.8072 56.4907 22.542 57.4045 22.542 58.3886C22.8232 58.5292 23.1746 58.5995 23.5964 58.5995C24.1587 58.5995 24.8616 58.4589 25.7051 58.1777C24.4399 60.1459 23.8072 61.2705 23.8072 61.5517C23.9478 61.8329 24.4399 61.9734 25.2834 61.9734C25.9863 61.9734 26.7595 61.7626 27.603 61.3408C28.4465 60.7785 29.1494 60.4973 29.7117 60.4973H30.1334ZM83.0626 53.5385L82.43 51.2189H79.8995C80.1807 51.3595 80.4618 51.9218 80.743 52.9059C81.1647 53.3276 81.9379 53.5385 83.0626 53.5385ZM80.5321 55.6472C80.5321 55.2255 79.4075 55.0146 77.1581 55.0146C77.1581 54.0305 77.2284 53.5385 77.369 53.5385C77.6502 53.6791 78.0719 53.7494 78.6343 53.7494H79.2669C79.1263 53.3276 78.7748 52.2733 78.2125 50.5863C77.7908 49.321 77.5799 48.2667 77.5799 47.4232C71.3943 43.9086 65.3493 38.6368 59.4448 31.6077C57.0549 31.6077 55.86 31.6077 55.86 31.6077C56.2817 32.5918 56.844 34.6302 57.5469 37.723L61.5535 38.9883C61.413 39.1288 61.3427 38.6368 61.3427 37.5121C61.2021 37.5121 61.2021 37.4418 61.3427 37.3013C61.7644 37.3013 62.0456 37.4419 62.1862 37.723C62.3267 38.0042 62.8188 39.41 63.6623 41.9405L63.8731 42.5731C62.0456 43.1354 61.2021 43.6978 61.3427 44.2601C61.905 44.8224 63.3811 45.1036 65.771 45.1036L65.1384 47.6341C64.4355 47.4935 65.4195 47.4232 68.0906 47.4232C68.3718 47.4232 68.6529 47.4935 68.9341 47.6341C68.9341 48.8993 68.6529 50.9377 68.0906 53.7494C68.6529 54.0305 69.0747 54.1711 69.3558 54.1711C69.7776 54.1711 70.0588 53.89 70.1993 53.3276C70.4805 52.7653 70.7617 52.4841 71.0428 52.4841H71.4646L71.8863 53.7494C72.5892 53.89 73.6436 54.382 75.0494 55.2255C76.5958 55.9284 77.8611 56.2799 78.8451 56.2799C80.251 56.2799 80.8133 56.069 80.5321 55.6472ZM25.0725 10.7313L24.229 7.14641C23.6667 7.14641 22.8232 7.07612 21.6985 6.93554C20.5739 6.65438 19.8007 6.5138 19.3789 6.5138C19.0977 6.5138 18.9572 6.65438 18.9572 6.93554C19.3789 7.49787 21.4173 8.76311 25.0725 10.7313ZM24.6507 26.9685C24.6507 26.4062 24.5804 25.9844 24.4399 25.7032C24.0181 24.0163 22.6123 23.1728 20.2224 23.1728C19.2383 23.1728 18.8166 23.3134 18.9572 23.5945C19.5195 25.1409 21.4173 26.2656 24.6507 26.9685Z" fill="#00467F"/>
</svg>
